# xmcd
#
# Track frame offsets:
#	150
#	13420
#	31335
#	48000
#	60704
#	77097
#	92550
#	106571
#	122939
#	136809
#	150922
#	165135
#	182584
#	200564
#	216121
#	232783
#	252323
#	268244
#	284302
#
# Disc length: 3986 seconds
#
# Revision: 2
# Processed by: cddbd v1.5.2PL0 Copyright (c) Steve Scherf et al.
# Submitted via: audiograbber 1.83.01
#
DISCID=f20f9013
DTITLE=Various Artist - Promo Only Country Radio 2017 - 01
DYEAR=2017
DGENRE=Country
TTITLE0=Ryan Kinder - Close
TTITLE1=Drake White - Makin' Me Look Good Again
TTITLE2=Aaron Watson - Outta Style
TTITLE3=Jackie Lee - Getting Over You
TTITLE4=Cody Johnson - With You I Am
TTITLE5=Gretchen Wilson - Rowdy
TTITLE6=Blake Shelton - A Guy With A Girl
TTITLE7=Midland - Drinkin' Problem
TTITLE8=Melodime - Chance On Me
TTITLE9=Ty Herndon - That Kind Of Night
TTITLE10=Curtis Grimes - From Where I'm Standing
TTITLE11=Billy Currington - Do I Make You Wanna
TTITLE12=Jenna Torres - Heart On Wheels
TTITLE13=Dierks Bentley - Black
TTITLE14=William Michael Morgan - Missing
TTITLE15=Little Big Town - Better Man
TTITLE16=LoCash - Ring On Every Finger
TTITLE17=Marty Heddin - Game Changer
TTITLE18=Caroline Jones - Tough Guys
EXTD=
EXTT0=
EXTT1=
EXTT2=
EXTT3=
EXTT4=
EXTT5=
EXTT6=
EXTT7=
EXTT8=
EXTT9=
EXTT10=
EXTT11=
EXTT12=
EXTT13=
EXTT14=
EXTT15=
EXTT16=
EXTT17=
EXTT18=
PLAYORDER=
